<svg class="character" data-kind="big-head" data-person="lin" data-motion="still" viewBox="0 0 48 50" xmlns="http://www.w3.org/2000/svg" aria-hidden="true" shape-rendering="crispEdges"><g transform="translate(0 0)"><g data-part="body"><path d="M17 39h15v2h4v5H13v-5h4Z" fill="#b87962"/><path d="M21 40h7v2h-7Z" fill="#f5cca6"/></g><g data-part="head"><g fill="#694936" stroke="#f6e8d0" stroke-width="1" stroke-linejoin="miter"><path d="M16 3h15v2h6v3h4v5h2v8h1v15h-2v7h-7v-5H12v5H5v-8H3V17h2V11h3V7h8Z"/></g><path data-part="face" d="M14 12h19v3h6v6h3v9h-2v4h-3v3h-5v3H17v-2h-5v-3H8v-4H6v-8h2v-6h6Z" fill="#f5cca6"/><path d="M40 24h2v6h-2v4h-3v3h-5v3H17v-2h14v-2h5v-3h3v-4h1Z" fill="#e9b68e"/><path d="M9 13h5V9h18v4h5v9h-5v-7h-6v3h-6v2H9v9H6V18h3Z" fill="#694936"/><path d="M12 9h7V7h12v2h-8v2H12Z" fill="#926749"/><path d="M6 23h4v11h3v8H7v-6H5Z" fill="#694936"/><path d="M38 19h5v17h-2v6h-6v-5h3Z" fill="#694936"/><path d="M37 18h4v2h-4Z" fill="#d8b778"/><g transform="translate(0 0)"><path d="M10 31h7v2h-7Zm22 0h7v2h-7Z" fill="#e9ab91"/><g data-part="expression" data-expression="gentle-focus"><path d="M13 23h5v1h-5Zm15 0h5v1h-5Z" fill="#91644d"/><path d="M14 26h3v4h-3Zm15 0h3v4h-3Z" fill="#513e33"/><path d="M14 26h1v1h-1Zm15 0h1v1h-1Z" fill="#fff4df"/><path d="M21 34h2v1h3v-1h2v2h-2v1h-3v-1h-2Z" fill="#a06951"/></g></g></g></g></svg>